<?xml version="1.0" standalone="no"?>
<!DOCTYPE svg PUBLIC "-//W3C//DTD SVG 20010904//EN"
 "http://www.w3.org/TR/2001/REC-SVG-20010904/DTD/svg10.dtd">
<svg version="1.0" xmlns="http://www.w3.org/2000/svg"
 width="658.000000pt" height="379.000000pt" viewBox="0 0 658.000000 379.000000"
 preserveAspectRatio="xMidYMid meet">

<g transform="translate(0.000000,379.000000) scale(0.100000,-0.100000)"
fill="#000000" stroke="none">
<path d="M100 1855 l0 -1695 303 2 302 3 5 1120 5 1120 26 3 c25 3 28 -3 143
-335 158 -453 168 -482 209 -598 34 -97 415 -1188 444 -1272 l15 -43 278 0
277 0 76 218 c41 119 153 440 247 712 95 272 188 540 207 595 41 115 61 175
171 490 79 228 80 230 108 230 l29 0 3 -1122 2 -1123 315 0 315 0 0 1695 0
1695 -425 0 c-234 0 -425 -2 -425 -4 0 -2 -36 -109 -80 -237 -45 -129 -121
-351 -170 -494 -48 -143 -139 -406 -200 -585 -62 -179 -122 -356 -135 -395
-35 -107 -230 -674 -252 -730 -15 -41 -23 -50 -42 -50 -29 0 16 -121 -343 925
-39 113 -83 241 -98 285 -16 44 -60 172 -99 285 -75 221 -251 731 -308 898
l-36 102 -433 0 -434 0 0 -1695z"/>
<path d="M3900 1856 l0 -1696 335 0 335 0 0 712 0 711 243 -6 c323 -8 386 -24
495 -122 84 -76 122 -166 315 -760 l173 -530 342 -3 c188 -1 342 -1 342 2 0
15 -376 1119 -403 1183 -92 219 -189 338 -336 413 -33 16 -41 26 -41 48 0 25
6 30 53 47 245 86 449 271 516 467 69 202 68 450 -2 659 -85 251 -298 440
-580 513 -183 48 -202 49 -1014 53 l-773 5 0 -1696z m1438 1149 c100 -24 165
-60 224 -124 71 -76 99 -156 106 -297 9 -208 -63 -353 -213 -429 -91 -46 -176
-54 -547 -55 l-338 0 0 460 0 460 353 0 c277 0 366 -3 415 -15z"/>
</g>
</svg>
